<svg width="454" height="637" viewBox="0 0 454 637" fill="none" xmlns="http://www.w3.org/2000/svg">
<path fill-rule="evenodd" clip-rule="evenodd" d="M65.4573 107.287C90.2482 97.5756 112.764 88.7548 123.658 67.8974C135.775 44.6962 124.678 9.37027 124.678 9.37027C124.678 9.37027 166.002 42.6911 184.393 90.5753C195.234 81.6083 203.7 71.5752 207.43 58.3295C214.526 33.1346 196.412 0.839844 196.412 0.839844C196.412 0.839844 314.547 57.3574 301.123 164.743C292.168 236.383 256.764 262.682 245.927 269.148C263.886 269.53 290.884 274.934 319.438 297.975C319.438 297.975 289.324 313.031 267.664 327.265C277.777 350.167 287.632 372.485 297.467 394.755L298.848 397.882L300.069 400.646C318.612 442.638 337.157 484.632 357.294 530.236C375.907 572.39 385.197 615.969 386.216 658.859C386.497 670.669 376.714 680.004 364.901 680.004H-176.611C-183.555 680.004 -190.115 676.735 -194.178 671.105C-218.907 636.839 -236.778 605.115 -243 579.191C-166.623 588.629 -87.744 571.922 -35.9231 521.018C-87.3236 535.732 -141.909 519.797 -141.909 519.797C-141.909 519.797 -106.577 508.72 -94.4594 485.519C-83.5659 464.662 -89.1916 441.143 -95.3857 415.248C-102.972 383.534 -111.41 348.255 -91.3978 309.938C-55.045 240.334 -8.61554 264.584 -8.61554 264.584C-8.61554 264.584 -55.045 240.334 -18.6921 170.731C1.32056 132.413 35.0949 119.182 65.4573 107.287ZM176.168 340.415C190.82 340.415 202.697 328.537 202.697 313.885C202.697 299.233 190.82 287.355 176.168 287.355C161.516 287.355 149.638 299.233 149.638 313.885C149.638 328.537 161.516 340.415 176.168 340.415ZM446.768 409.397C461.92 378.93 449.505 341.948 419.038 326.796C393.044 313.868 318.877 327.07 297.658 331.225C294.694 331.806 293.131 334.949 294.456 337.662C303.947 357.091 338.174 424.2 364.167 437.127C394.635 452.279 431.616 439.864 446.768 409.397Z" fill="#5D4043"/>
</svg>
