<svg width="32" height="31" viewBox="0 0 32 31" fill="none" xmlns="http://www.w3.org/2000/svg">
<path fill-rule="evenodd" clip-rule="evenodd" d="M13.8827 5.22372C14.9985 4.78662 16.0119 4.38962 16.5022 3.45089C17.0476 2.40667 16.5481 0.81676 16.5481 0.81676C16.5481 0.81676 18.4079 2.31643 19.2357 4.47155C19.7236 4.06798 20.1046 3.61642 20.2725 3.02027C20.5919 1.88632 19.7766 0.432831 19.7766 0.432831C19.7766 0.432831 25.0935 2.97652 24.4894 7.80961C24.0864 11.0338 22.493 12.2175 22.0052 12.5086C22.8135 12.5258 24.0284 12.7691 25.3134 13.806C25.3134 13.806 23.9583 14.4835 22.9834 15.1241L24.4521 18.45L27.0174 24.2594C27.86 26.1676 28.2781 28.1407 28.3199 30.0819C28.331 30.5947 27.9063 31 27.3934 31H2.97044C2.66893 31 2.38416 30.858 2.20757 30.6137C1.08929 29.066 0.280891 27.6331 0 26.4627C3.43752 26.8875 6.98761 26.1356 9.31992 23.8445C7.00653 24.5067 4.54979 23.7896 4.54979 23.7896C4.54979 23.7896 6.13999 23.291 6.68537 22.2468C7.17566 21.3081 6.92246 20.2496 6.64368 19.0841C6.30225 17.6567 5.92245 16.069 6.82316 14.3444C8.4593 11.2118 10.5489 12.3032 10.5489 12.3032C10.5489 12.3032 8.4593 11.2118 10.0954 8.07911C10.9961 6.35455 12.5162 5.75906 13.8827 5.22372ZM18.8657 15.7164C19.5251 15.7164 20.0597 15.1818 20.0597 14.5224C20.0597 13.8629 19.5251 13.3284 18.8657 13.3284C18.2062 13.3284 17.6716 13.8629 17.6716 14.5224C17.6716 15.1818 18.2062 15.7164 18.8657 15.7164ZM31.0444 18.8209C31.7264 17.4497 31.1676 15.7852 29.7964 15.1033C28.6265 14.5215 25.2884 15.1156 24.3334 15.3026C24.2 15.3288 24.1297 15.4703 24.1893 15.5924C24.6165 16.4668 26.1569 19.4871 27.3268 20.069C28.6981 20.7509 30.3625 20.1921 31.0444 18.8209Z" fill="#30171B"/>
</svg>
