<svg width="530" height="522" viewBox="0 0 530 522" fill="none" xmlns="http://www.w3.org/2000/svg">
<g clip-path="url(#clip0_25_358)">
<g clip-path="url(#clip1_25_358)">
<path fill-rule="evenodd" clip-rule="evenodd" d="M265.264 133.617C263.846 143.698 255.946 150.557 247.247 158.11C237.766 166.341 227.338 175.396 223.321 190.343C217.181 190.11 209.274 192.017 199.44 198.379C183.736 208.538 179.391 223.618 175.485 237.175C172.296 248.244 169.399 258.298 160.851 263.828C151.342 269.979 135.679 266.615 135.679 266.615C135.679 266.615 163.624 295.35 194.94 290.736C166.729 324.958 115.14 338.199 71.7297 310.541L43.9732 292.857C43.4295 292.51 42.7279 292.953 42.8067 293.593L69.561 510.689C69.6125 511.107 69.9931 511.404 70.411 511.352L246.215 489.687C314.36 481.289 358.167 413.109 337.486 347.638L307.776 253.586C307.656 253.206 307.848 252.799 308.217 252.649L330.14 243.781C330.53 243.623 330.719 243.178 330.553 242.791C328.889 238.93 326.522 235.409 323.571 232.409C320.442 229.227 316.716 226.693 312.608 224.951C308.499 223.209 304.087 222.294 299.625 222.257C299.24 222.254 298.856 222.257 298.473 222.267C298.128 222.276 297.817 222.058 297.713 221.73L293.901 209.663C298.951 200.825 303.233 189.1 305.417 173.571C311.724 128.714 257.196 109.61 257.196 109.61C257.196 109.61 266.84 122.402 265.264 133.617Z" fill="#003DB3"/>
<path d="M360.063 257.319C371.099 264.414 374.294 279.111 367.199 290.147C360.105 301.182 345.407 304.377 334.371 297.283C324.815 291.139 314.367 263.246 311.738 255.879C311.409 254.956 312.023 254 312.999 253.917C320.794 253.25 350.507 251.176 360.063 257.319Z" fill="#F73C53"/>
</g>
<path d="M134.549 98.5315C134.89 98.8993 134.962 99.4375 134.459 99.904C133.956 100.379 133.426 100.272 133.075 99.904C129.644 96.2351 126.428 95.1048 123.769 97.5896L119.358 101.707L144.008 128.035C146.262 125.936 146.676 125.461 147.134 125.03C147.457 124.734 148.122 124.707 148.598 125.21C149.074 125.712 148.957 126.331 148.643 126.636C148.185 127.067 147.511 127.264 143.747 130.78L143.154 131.336C139.39 134.853 139.139 135.508 138.681 135.938C138.312 136.279 137.738 136.306 137.261 135.804C136.785 135.301 136.812 134.673 137.181 134.333C137.639 133.902 138.142 133.516 140.343 131.462L115.693 105.134L111.282 109.251C108.615 111.736 109.531 115.01 112.971 118.679C113.313 119.047 113.34 119.621 112.837 120.096C112.378 120.527 111.848 120.419 111.507 120.052C111.076 119.594 108.3 116.167 106.539 114.284L105.255 112.911C104.779 112.409 104.806 111.79 105.174 111.44C105.587 111.054 107.186 109.906 107.869 109.269L115.118 102.667L116.96 100.954L123.994 94.2167C124.73 93.5349 125.979 92.0189 126.392 91.6332C126.76 91.2923 127.38 91.3103 127.856 91.8126L129.141 93.1851C130.901 95.0689 134.135 98.065 134.567 98.5225L134.549 98.5315Z" fill="#003DB3"/>
<path d="M164.938 87.6774L156.242 73.9975C153.691 75.6122 153.197 76.0069 152.667 76.3388C152.245 76.6079 151.634 76.4733 151.266 75.8902C150.924 75.361 151.068 74.751 151.49 74.4819C152.02 74.141 152.721 74.0692 157.078 71.3153L157.716 70.9116C162.072 68.1487 162.432 67.5477 162.962 67.2068C163.33 66.9736 163.995 67.0723 164.327 67.6015C164.695 68.1846 164.507 68.8215 164.138 69.0637C163.608 69.4046 163.096 69.6468 160.491 71.2974L180.038 102.048C182.643 100.398 183.084 100.039 183.614 99.7068C183.982 99.4736 184.647 99.5723 185.015 100.155C185.383 100.738 185.168 101.321 184.79 101.564C184.26 101.905 183.56 101.976 179.203 104.73L178.565 105.134C174.208 107.897 173.849 108.498 173.319 108.83C172.897 109.099 172.322 109.018 171.954 108.435C171.585 107.852 171.72 107.242 172.142 106.973C172.672 106.632 173.238 106.354 175.789 104.739L166.151 89.5792L152.029 98.5317L161.668 113.692C164.219 112.077 164.713 111.682 165.243 111.35C165.612 111.117 166.276 111.216 166.645 111.799C167.013 112.382 166.797 112.965 166.42 113.207C165.89 113.548 165.189 113.62 160.833 116.374L160.195 116.778C155.838 119.54 155.479 120.142 154.949 120.473C154.58 120.707 153.952 120.662 153.583 120.079C153.215 119.496 153.404 118.859 153.772 118.617C154.302 118.276 154.868 117.998 157.419 116.383L137.872 85.6322C135.321 87.2468 134.827 87.6415 134.297 87.9734C133.928 88.2067 133.264 88.108 132.895 87.5249C132.554 86.9957 132.743 86.3588 133.12 86.1166C133.65 85.7757 134.351 85.7039 138.707 82.95L139.345 82.5463C143.702 79.7834 144.061 79.1824 144.591 78.8505C144.96 78.6173 145.624 78.7159 145.957 79.2452C146.325 79.8283 146.136 80.4652 145.768 80.7074C145.238 81.0483 144.672 81.3263 142.121 82.941L150.817 96.621L164.938 87.6685V87.6774Z" fill="#003DB3"/>
<path d="M212.782 87.5605L213.492 89.3725C213.725 89.9556 213.411 90.5477 213.007 90.7091C212.477 90.9155 210.572 91.3909 209.638 91.7587C207.41 92.6288 195.84 97.0333 193.612 97.9124C188.815 99.7962 188.339 100.316 187.755 100.55C187.342 100.711 186.74 100.55 186.489 99.9039C186.237 99.258 186.543 98.6659 186.956 98.5045C187.54 98.2712 188.151 98.1008 190.962 97.0064L177.632 63.107C174.82 64.2104 174.263 64.4975 173.679 64.7307C173.266 64.8922 172.637 64.6679 172.385 64.022C172.152 63.4389 172.466 62.8469 172.871 62.6765C173.454 62.4432 174.155 62.506 178.952 60.6312C181.53 59.6175 191.663 55.5091 193.424 54.8183C194.358 54.4505 196.083 53.5086 196.613 53.3023C197.026 53.1409 197.655 53.3651 197.906 54.011L198.598 55.7602C199.541 58.1553 201.446 62.1293 201.67 62.7213C201.85 63.1878 201.724 63.717 201.077 63.9682C200.431 64.2194 199.919 63.9503 199.739 63.4838C197.897 58.8102 195.337 56.5765 191.995 57.8862L182.455 61.6269L188.25 76.3564L193.99 74.1048C195.858 73.3692 196.496 71.3688 195.319 68.3906C195.131 67.9242 195.211 67.4218 195.795 67.1886C196.325 66.9823 196.721 67.2962 196.9 67.7627C197.107 68.292 197.43 69.4492 198.966 73.3603C200.502 77.2714 201.059 78.3389 201.266 78.8681C201.428 79.2808 201.374 79.8369 200.853 80.0433C200.269 80.2765 199.847 79.8997 199.685 79.4871C198.508 76.5089 196.685 75.4683 194.816 76.2039L189.076 78.4555L195.517 94.8176L206.521 90.5028C209.854 89.1931 210.213 85.8113 208.381 81.1377C208.201 80.6712 208.381 80.124 209.027 79.8728C209.674 79.6217 210.123 79.9177 210.312 80.3841C210.545 80.9672 211.857 85.1744 212.8 87.5695L212.782 87.5605Z" fill="#003DB3"/>
<path d="M232.042 84.3492C235.015 83.8469 235.626 83.6854 236.246 83.5777C236.677 83.506 237.252 83.8558 237.36 84.5376C237.477 85.2193 237.046 85.6768 236.605 85.7486C235.986 85.8562 235.312 85.6499 230.227 86.5021L229.482 86.6277C224.397 87.4799 223.831 87.9015 223.212 88.0002C222.78 88.0719 222.215 87.7849 222.107 87.1031C221.99 86.4214 222.412 85.9101 222.852 85.8293C223.472 85.7217 224.101 85.6858 227.083 85.1834L221.02 49.2657C218.046 49.7681 217.436 49.9295 216.816 50.0372C216.385 50.109 215.81 49.7591 215.693 49.0773C215.585 48.4584 216.007 47.9381 216.447 47.8663C217.067 47.7587 217.741 47.965 222.825 47.1128C225.862 46.6015 235.824 44.7984 239.237 44.2243C240.226 44.0539 242.049 43.4977 242.669 43.3901C243.1 43.3183 243.675 43.6682 243.792 44.3499L244.106 46.2068C244.537 48.7454 245.579 53.0244 245.678 53.6523C245.759 54.1457 245.526 54.6301 244.843 54.7467C244.16 54.8633 243.72 54.4865 243.63 53.9932C242.795 49.0415 240.738 46.3324 237.207 46.9244L226.041 48.8082L228.673 64.4168L235.806 63.2148C237.791 62.8829 238.824 61.0529 238.285 57.8953C238.204 57.4019 238.375 56.9265 238.932 56.8278C239.489 56.7381 239.875 57.1149 239.956 57.6083C240.046 58.1644 240.127 59.3665 240.827 63.5108C241.528 67.6552 241.851 68.8124 241.941 69.3685C242.013 69.7991 241.789 70.3463 241.232 70.445C240.675 70.5347 240.342 70.0862 240.27 69.6556C239.74 66.498 238.159 65.1076 236.183 65.4395L229.051 66.6415L232.042 84.3492Z" fill="#003DB3"/>
<path d="M264.561 63.403L259.53 63.4837L259.817 81.4426C262.836 81.3977 263.465 81.317 264.093 81.308C264.534 81.308 265.046 81.7296 265.055 82.4204C265.064 83.1111 264.57 83.4968 264.129 83.5058C263.501 83.5148 262.863 83.2098 257.706 83.2995H256.952C251.796 83.3982 251.176 83.7211 250.547 83.7301C250.107 83.7301 249.595 83.3712 249.586 82.6805C249.577 81.9898 250.071 81.5413 250.511 81.5323C251.14 81.5233 251.769 81.5771 254.787 81.5323L254.203 45.1212C251.185 45.166 250.556 45.2378 249.927 45.2468C249.487 45.2468 248.975 44.8252 248.966 44.1344C248.957 43.5065 249.451 43.058 249.891 43.049C250.52 43.0401 251.158 43.345 256.305 43.2643C258.757 43.2284 260.455 43.1387 262.971 43.0939C272.088 42.9503 276.553 46.9601 276.643 52.4859C276.724 57.321 272.502 60.9092 268.863 61.591C274.541 62.6943 277.649 68.1035 277.712 72.2479C277.766 75.7015 277.487 77.8993 277.514 79.5319C277.541 81.0389 278.053 81.9718 279.122 81.9539C280.254 81.936 281.125 81.2901 281.107 80.097C281.107 79.5319 281.53 79.0206 282.095 79.0116C282.598 79.0116 283.111 79.496 283.12 79.9983C283.155 82.1961 281.233 83.6673 279.158 83.7031C274.127 83.7839 272.564 80.2944 272.43 72.3196C272.34 66.8566 270.651 63.3043 264.552 63.403H264.561ZM263.006 45.3455C261.309 45.3724 259.234 45.4083 259.234 45.4083L259.485 61.2321L263.258 61.1694C268.792 61.0796 271.127 57.7157 271.046 52.5667C270.965 47.292 269.295 45.2468 263.006 45.3455Z" fill="#003DB3"/>
<path d="M309.934 85.5417L309.611 87.4614C309.503 88.0804 308.937 88.4302 308.506 88.3585C307.949 88.2598 306.071 87.6947 305.074 87.5242C302.721 87.1295 290.522 84.9407 288.168 84.546C283.084 83.6849 282.41 83.8912 281.79 83.7925C281.359 83.7207 280.919 83.2632 281.036 82.5815C281.152 81.8997 281.718 81.5499 282.159 81.6217C282.778 81.7293 283.389 81.8908 286.363 82.3931L292.435 46.4754C289.462 45.9731 288.824 45.9282 288.204 45.8295C287.773 45.7578 287.351 45.2375 287.459 44.5557C287.566 43.9368 288.132 43.5869 288.563 43.6587C289.183 43.7663 289.749 44.179 294.834 45.0401C297.564 45.4976 308.371 47.193 310.231 47.507C311.219 47.6774 313.186 47.7492 313.743 47.8479C314.174 47.9196 314.596 48.4399 314.489 49.1217L314.174 50.9786C313.743 53.5172 313.321 57.9038 313.213 58.5227C313.132 59.0161 312.746 59.4018 312.063 59.2852C311.38 59.1686 311.084 58.6752 311.165 58.1818C312 53.2302 310.958 49.9918 307.419 49.3998L297.313 47.6954L294.672 63.304L300.753 64.3266C302.739 64.6585 304.311 63.2681 304.85 60.1105C304.931 59.6171 305.254 59.2224 305.874 59.3301C306.431 59.4287 306.61 59.8952 306.521 60.3976C306.431 60.9537 306.107 62.1109 305.398 66.2553C304.697 70.3996 304.616 71.6017 304.526 72.1578C304.454 72.5884 304.122 73.0459 303.565 72.9472C302.945 72.8396 302.784 72.3014 302.856 71.8708C303.386 68.7132 302.361 66.8832 300.376 66.5513L294.304 65.5287L291.375 82.8685L303.035 84.8331C306.574 85.4251 308.623 82.7161 309.458 77.7644C309.539 77.271 309.988 76.9032 310.671 77.0108C311.353 77.1275 311.587 77.6119 311.506 78.1052C311.398 78.7242 310.356 83.0031 309.934 85.5417Z" fill="#003DB3"/>
<path d="M317.399 88.798C320.228 89.8385 320.839 90 321.432 90.2153C321.908 90.3857 322.169 90.9509 321.926 91.5968C321.683 92.2426 321.144 92.4489 320.668 92.2695C320.138 92.0722 319.689 91.6416 315.647 90.0897C311.613 88.6724 310.994 88.7172 310.464 88.5199C309.987 88.3494 309.709 87.8381 309.952 87.1923C310.194 86.5464 310.751 86.2862 311.227 86.4567C311.82 86.672 312.386 86.9501 315.216 87.9906L327.81 53.8132C324.98 52.7726 324.369 52.6111 323.776 52.3958C323.3 52.2254 323.04 51.6603 323.282 51.0144C323.498 50.4223 324.064 50.1622 324.54 50.3326C325.07 50.53 325.519 50.9606 329.508 52.4945C330.397 52.8175 331.322 53.0238 331.915 53.248C332.804 53.571 332.903 54.2079 333.352 56.2531L340.189 88.8069L350.07 61.9942C347.177 60.9357 346.567 60.7743 345.974 60.559C345.56 60.4065 345.237 59.8234 345.48 59.1775C345.695 58.5855 346.324 58.3522 346.737 58.5047C347.33 58.72 347.77 59.1506 351.759 60.6846C355.792 62.1019 356.475 62.0839 357.005 62.2723C357.418 62.4248 357.741 63.0079 357.517 63.6C357.274 64.2458 356.654 64.488 356.241 64.3355C355.648 64.1202 355.082 63.8422 352.19 62.7836L339.245 97.903C338.787 99.1409 338.347 99.4459 337.808 99.2486C337.161 99.0064 337.071 98.513 336.883 97.5711L328.69 58.1638L317.399 88.8069V88.798Z" fill="#003DB3"/>
<path d="M352.881 83.0216C359.34 72.1045 370.371 68.7585 378.223 73.3873C382.66 76.0066 383.909 79.0745 384.708 82.1694C385.454 82.0258 386.721 81.2364 387.295 80.2676C387.484 79.9447 387.897 79.3795 388.598 79.7922C389.46 80.3035 389.11 80.8956 388.948 81.1647L382.301 92.4136C382.04 92.8442 381.573 93.1492 380.98 92.7993C380.226 92.3508 380.459 91.8305 380.684 91.4538C384.169 85.5602 382.615 78.8054 377.414 75.7465C371.243 72.1045 365.098 73.7282 357.867 85.9549C350.645 98.1727 352.181 104.335 358.352 107.977C363.553 111.045 370.219 109.144 373.704 103.25C373.929 102.873 374.27 102.416 375.025 102.864C375.618 103.214 375.582 103.779 375.321 104.21L368.674 115.459C368.512 115.728 368.126 116.374 367.263 115.871C366.563 115.459 366.886 114.777 367.084 114.454C367.497 113.754 367.838 112.193 367.506 111.278C364.2 112.176 361.128 112.552 356.636 109.897C348.785 105.268 346.423 93.9565 352.881 83.0305V83.0216Z" fill="#003DB3"/>
<path d="M404.148 117.119L414.928 105.008C412.673 103.008 412.161 102.64 411.694 102.219C411.316 101.887 411.28 101.268 411.739 100.747C412.152 100.281 412.781 100.245 413.158 100.568C413.625 100.981 413.886 101.636 417.739 105.053L418.305 105.556C422.159 108.973 422.842 109.162 423.309 109.574C423.641 109.87 423.722 110.525 423.309 111.001C422.851 111.521 422.186 111.512 421.854 111.216C421.386 110.803 421 110.373 418.7 108.336L394.473 135.562C396.773 137.607 397.24 137.93 397.707 138.352C398.039 138.648 398.12 139.302 397.662 139.823C397.204 140.343 396.575 140.289 396.252 139.993C395.785 139.581 395.524 138.926 391.67 135.508L391.105 135.006C387.251 131.588 386.568 131.4 386.101 130.987C385.724 130.655 385.643 130.081 386.101 129.561C386.559 129.04 387.179 129.004 387.556 129.345C388.023 129.758 388.455 130.224 390.709 132.225L402.657 118.805L390.152 107.709L378.205 121.128C380.46 123.129 380.972 123.497 381.439 123.918C381.771 124.214 381.852 124.869 381.394 125.389C380.936 125.91 380.307 125.856 379.975 125.56C379.507 125.147 379.247 124.492 375.393 121.075L374.827 120.572C370.974 117.154 370.291 116.966 369.824 116.553C369.491 116.257 369.366 115.647 369.824 115.127C370.282 114.607 370.956 114.616 371.279 114.912C371.746 115.324 372.177 115.791 374.432 117.791L398.659 90.566C396.405 88.5656 395.892 88.1978 395.425 87.7762C395.093 87.4802 395.012 86.8253 395.47 86.305C395.884 85.8386 396.557 85.8386 396.89 86.1256C397.357 86.5383 397.617 87.1931 401.471 90.6109L402.037 91.1132C405.891 94.5309 406.573 94.7193 407.04 95.1409C407.373 95.437 407.454 96.0918 407.04 96.5672C406.582 97.0875 405.918 97.0785 405.585 96.7825C405.118 96.3609 404.687 95.9034 402.432 93.903L391.652 106.013L404.157 117.11L404.148 117.119Z" fill="#003DB3"/>
<path d="M170.867 423.621C170.579 424.034 170.067 424.213 169.501 423.818C168.935 423.424 168.926 422.886 169.214 422.473C172.088 418.355 172.529 414.983 169.537 412.901L164.588 409.448L143.936 439.005C146.46 440.764 147.017 441.078 147.529 441.436C147.888 441.688 148.05 442.334 147.654 442.899C147.259 443.464 146.63 443.491 146.271 443.24C145.759 442.881 145.418 442.262 141.196 439.319L140.522 438.853C136.291 435.911 135.599 435.803 135.078 435.444C134.665 435.157 134.521 434.592 134.917 434.027C135.312 433.462 135.923 433.354 136.336 433.641C136.848 434 137.333 434.413 139.803 436.135L160.455 406.577L155.506 403.124C152.514 401.043 149.496 402.612 146.621 406.739C146.334 407.151 145.768 407.295 145.202 406.9C144.69 406.541 144.681 406.003 144.969 405.591C145.328 405.079 148.104 401.652 149.577 399.535L150.655 397.993C151.05 397.427 151.661 397.32 152.074 397.607C152.541 397.93 153.997 399.248 154.769 399.787L162.737 405.492L164.803 406.927L172.87 412.39C173.696 412.964 175.439 413.87 175.906 414.193C176.319 414.48 176.427 415.09 176.032 415.655L174.954 417.198C173.481 419.306 171.217 423.092 170.858 423.612L170.867 423.621Z" fill="#003DB3"/>
<path d="M179.472 461.799C170.849 458.131 167.031 447.222 172.007 435.552C176.984 423.881 187.485 419.136 196.109 422.796C204.733 426.456 208.577 437.31 203.601 448.99C198.624 460.66 188.096 465.468 179.472 461.799ZM195.148 425.056C188.204 422.105 182.904 424.76 177.334 437.821C171.765 450.882 173.517 456.543 180.46 459.494C187.404 462.445 192.704 459.79 198.274 446.729C203.843 433.668 202.092 428.008 195.148 425.056Z" fill="#003DB3"/>
<path d="M243.944 447.635C243.845 448.128 243.45 448.496 242.776 448.362C242.102 448.227 241.878 447.734 241.968 447.24C242.938 442.307 241.986 439.05 238.41 438.342L232.491 437.176L225.493 472.537C228.52 473.129 229.149 473.192 229.76 473.318C230.191 473.398 230.604 473.927 230.469 474.609C230.335 475.291 229.769 475.56 229.338 475.47C228.718 475.345 228.161 474.923 223.103 473.919L222.304 473.757C217.246 472.761 216.564 472.95 215.953 472.824C215.459 472.725 215.099 472.268 215.234 471.595C215.369 470.922 215.881 470.573 216.375 470.671C216.995 470.797 217.597 470.976 220.561 471.559L227.559 436.198L221.639 435.032C218.064 434.323 215.935 436.978 214.956 441.912C214.857 442.405 214.399 442.764 213.725 442.63C213.105 442.504 212.881 442.02 212.979 441.517C213.105 440.898 214.264 436.646 214.758 434.126L215.126 432.278C215.261 431.596 215.782 431.255 216.267 431.354C216.824 431.461 218.684 432.089 219.609 432.269L229.212 434.287L231.682 434.771L241.267 436.53C242.255 436.727 244.214 436.853 244.77 436.969C245.265 437.068 245.615 437.579 245.48 438.261L245.112 440.109C244.609 442.639 244.07 447.007 243.944 447.626V447.635Z" fill="#003DB3"/>
<path d="M267.255 479.148C257.886 479.301 249.954 470.886 249.747 458.202C249.541 445.518 257.203 436.915 266.573 436.763C275.942 436.61 283.874 444.962 284.08 457.646C284.287 470.33 276.625 478.996 267.255 479.139V479.148ZM266.608 439.212C259.063 439.337 255.299 443.912 255.532 458.103C255.757 472.295 259.674 476.753 267.219 476.628C274.765 476.511 278.529 471.927 278.295 457.736C278.062 443.544 274.154 439.086 266.608 439.212Z" fill="#003DB3"/>
<path d="M320.551 440.486C320.659 440.979 320.444 441.473 319.77 441.616C319.096 441.76 318.692 441.401 318.584 440.908C317.515 436.001 315.332 433.39 311.775 434.162L305.873 435.445L313.563 470.663C316.572 470.008 317.174 469.811 317.785 469.676C318.216 469.586 318.8 469.9 318.943 470.582C319.087 471.255 318.683 471.73 318.252 471.829C317.641 471.963 316.958 471.793 311.919 472.887L311.119 473.058C306.08 474.152 305.532 474.592 304.921 474.726C304.427 474.834 303.915 474.556 303.771 473.883C303.627 473.21 303.96 472.69 304.454 472.582C305.065 472.448 305.693 472.376 308.649 471.73L300.959 436.512L295.057 437.795C291.491 438.566 290.602 441.85 291.671 446.756C291.779 447.25 291.5 447.761 290.826 447.905C290.216 448.039 289.811 447.68 289.704 447.187C289.569 446.577 288.94 442.208 288.392 439.697L287.988 437.858C287.844 437.185 288.176 436.656 288.671 436.548C289.227 436.431 291.186 436.261 292.102 436.055L301.714 434.09L304.175 433.552L313.67 431.354C314.65 431.139 316.509 430.484 317.057 430.358C317.551 430.251 318.072 430.592 318.216 431.264L318.62 433.103C319.168 435.615 320.417 439.849 320.551 440.459V440.486Z" fill="#003DB3"/>
<path d="M353.555 426.725C353.753 427.182 353.636 427.712 353.007 427.99C352.378 428.268 351.911 427.99 351.713 427.523C349.719 422.912 347.087 420.759 343.736 422.204L338.194 424.59L352.477 457.691C355.307 456.471 355.855 456.166 356.439 455.924C356.843 455.753 357.481 455.951 357.75 456.587C358.02 457.224 357.714 457.763 357.31 457.942C356.735 458.193 356.034 458.148 351.291 460.185L350.537 460.508C345.803 462.544 345.344 463.082 344.77 463.333C344.311 463.531 343.754 463.36 343.485 462.723C343.215 462.086 343.44 461.512 343.907 461.315C344.482 461.064 345.084 460.875 347.86 459.682L333.577 426.581L328.034 428.967C324.683 430.412 324.432 433.794 326.426 438.413C326.624 438.871 326.453 439.427 325.815 439.705C325.24 439.956 324.773 439.678 324.576 439.212C324.324 438.638 322.878 434.475 321.854 432.107L321.108 430.376C320.839 429.739 321.063 429.165 321.53 428.967C322.051 428.743 323.938 428.205 324.809 427.828L333.864 424.07L336.173 423.074L345.075 419.109C346 418.714 347.689 417.71 348.21 417.485C348.668 417.288 349.252 417.521 349.522 418.149L350.267 419.88C351.291 422.24 353.321 426.16 353.564 426.734L353.555 426.725Z" fill="#003DB3"/>
<path d="M398.506 429.479L399.611 431.084C399.971 431.605 399.8 432.25 399.441 432.502C398.974 432.825 397.222 433.713 396.395 434.287C394.428 435.632 384.143 442.531 382.166 443.876C377.917 446.792 377.576 447.402 377.055 447.76C376.696 448.012 376.067 447.985 375.672 447.411C375.276 446.836 375.447 446.191 375.806 445.948C376.327 445.59 376.875 445.293 379.364 443.589L358.73 413.556C356.241 415.26 355.756 415.664 355.244 416.023C354.885 416.274 354.22 416.193 353.825 415.619C353.465 415.099 353.636 414.453 353.995 414.211C354.516 413.852 355.208 413.762 359.466 410.847C361.748 409.286 370.695 402.998 372.258 401.93C373.084 401.365 374.549 400.055 375.016 399.732C375.375 399.481 376.04 399.562 376.435 400.136L377.504 401.688C378.959 403.814 381.708 407.259 382.068 407.779C382.355 408.192 382.337 408.73 381.771 409.125C381.205 409.519 380.639 409.367 380.352 408.954C377.504 404.81 374.504 403.213 371.548 405.24L363.095 411.026L372.06 424.078L377.145 420.598C378.807 419.459 378.968 417.368 377.154 414.731C376.866 414.318 376.83 413.816 377.342 413.457C377.81 413.134 378.268 413.359 378.546 413.771C378.87 414.238 379.435 415.296 381.825 418.759C384.205 422.23 384.987 423.145 385.31 423.612C385.562 423.971 385.634 424.527 385.167 424.85C384.646 425.209 384.161 424.931 383.909 424.572C382.094 421.934 380.082 421.333 378.42 422.464L373.336 425.944L383.298 440.44L393.045 433.766C396 431.739 395.587 428.366 392.739 424.222C392.452 423.809 392.515 423.235 393.09 422.84C393.665 422.446 394.168 422.634 394.455 423.047C394.814 423.567 397.042 427.37 398.497 429.488L398.506 429.479Z" fill="#003DB3"/>
<path d="M306.843 522C299.827 522 292.605 519.255 285.58 516.582C278.717 513.971 271.629 511.271 265 511.271C258.37 511.271 251.274 513.971 244.42 516.582C235.994 519.784 227.28 523.103 218.98 521.65C210.347 520.143 203.16 513.927 196.208 507.925C190.548 503.027 185.194 498.408 179.257 496.246C173.139 494.021 165.62 494.129 158.362 494.227C149.28 494.353 139.884 494.488 132.473 490.209C124.981 485.876 120.382 477.632 115.944 469.657C112.432 463.36 108.812 456.848 103.898 452.73C98.9571 448.586 91.8964 446.137 85.0603 443.769C76.4456 440.781 67.5434 437.696 61.9918 431.102C56.4673 424.536 54.9581 415.26 53.5029 406.281C52.344 399.132 51.1493 391.74 47.9064 386.142C44.7174 380.634 39.2018 376.158 33.3629 371.431C26.2483 365.663 18.8912 359.697 15.9178 351.525C13.0073 343.551 14.7769 334.356 16.4837 325.475C17.8581 318.317 19.2774 310.925 18.1456 304.466C17.0586 298.295 13.4474 292.258 9.62065 285.862C4.89557 277.968 0.00878906 269.804 0.00878906 260.986C0.00878906 252.169 4.89557 244.005 9.62065 236.111C13.4474 229.715 17.0676 223.678 18.1456 217.507C19.2774 211.057 17.8581 203.656 16.4837 196.507C14.7769 187.617 13.0162 178.431 15.9178 170.457C18.9001 162.285 26.2573 156.319 33.3629 150.551C39.2018 145.815 44.7174 141.347 47.9064 135.84C51.1493 130.242 52.344 122.85 53.5029 115.701C54.9581 106.73 56.4673 97.455 61.9918 90.8797C67.5344 84.2864 76.4456 81.2005 85.0603 78.2134C91.8964 75.8452 98.9661 73.3962 103.898 69.2519C108.812 65.1344 112.441 58.6219 115.944 52.3246C120.382 44.3499 124.981 36.106 132.473 31.7733C139.875 27.4944 149.271 27.629 158.353 27.7545C165.62 27.8532 173.13 27.9609 179.248 25.7362C185.194 23.5743 190.539 18.9545 196.199 14.0566C203.152 8.04644 210.329 1.83888 218.971 0.33184C227.271 -1.1124 235.985 2.1977 244.411 5.40015C251.274 8.01055 258.361 10.7107 264.991 10.7107C271.62 10.7107 278.717 8.01055 285.571 5.40015C293.997 2.1977 302.711 -1.1124 311.011 0.33184C319.644 1.83888 326.83 8.05541 333.783 14.0566C339.442 18.9545 344.796 23.5743 350.734 25.7362C356.851 27.9609 364.37 27.8532 371.629 27.7545C380.71 27.629 390.107 27.4944 397.518 31.7733C405.01 36.106 409.609 44.3499 414.047 52.3246C417.559 58.6219 421.179 65.1344 426.093 69.2519C431.034 73.3962 438.094 75.8452 444.93 78.2134C453.545 81.2005 462.447 84.2864 467.99 90.8797C473.514 97.446 475.023 106.73 476.479 115.701C477.638 122.85 478.832 130.242 482.084 135.84C485.273 141.347 490.789 145.824 496.628 150.551C503.742 156.319 511.099 162.285 514.073 170.457C516.983 178.431 515.214 187.626 513.516 196.507C512.141 203.656 510.722 211.057 511.854 217.507C512.941 223.678 516.552 229.715 520.379 236.111C525.104 244.005 529.991 252.169 529.991 260.986C529.991 269.804 525.104 277.968 520.379 285.862C516.552 292.258 512.932 298.295 511.854 304.466C510.722 310.916 512.141 318.317 513.516 325.475C515.223 334.356 516.983 343.551 514.073 351.525C511.09 359.697 503.742 365.663 496.628 371.431C490.789 376.167 485.273 380.634 482.084 386.151C478.841 391.749 477.638 399.141 476.479 406.29C475.023 415.26 473.523 424.536 467.99 431.111C462.447 437.705 453.536 440.79 444.93 443.778C438.094 446.146 431.025 448.595 426.093 452.739C421.179 456.856 417.55 463.369 414.047 469.666C409.609 477.641 405.01 485.885 397.518 490.218C390.116 494.497 380.719 494.362 371.638 494.236C364.37 494.129 356.86 494.03 350.743 496.255C344.796 498.417 339.451 503.036 333.792 507.934C326.839 513.944 319.653 520.152 311.02 521.659C309.637 521.901 308.244 522.009 306.843 522.009V522ZM265 507.692C272.294 507.692 279.696 510.509 286.856 513.236C295.192 516.411 303.07 519.399 310.391 518.125C318.045 516.788 324.854 510.904 331.429 505.216C337.089 500.327 342.937 495.268 349.503 492.882C356.241 490.433 364.092 490.541 371.682 490.648C380.675 490.774 389.173 490.89 395.712 487.114C402.351 483.283 406.501 475.82 410.902 467.926C414.568 461.342 418.358 454.542 423.775 449.994C429.219 445.428 436.603 442.863 443.754 440.387C452.278 437.435 460.336 434.637 465.241 428.806C470.128 422.993 471.493 414.606 472.93 405.725C474.143 398.252 475.392 390.538 478.967 384.366C482.488 378.284 488.525 373.395 494.355 368.659C501.092 363.196 508.054 357.553 510.695 350.314C513.264 343.264 511.665 334.957 509.977 326.166C508.539 318.693 507.057 310.97 508.306 303.865C509.5 297.039 513.462 290.428 517.289 284.041C521.762 276.568 526.398 268.836 526.398 261.013C526.398 253.191 521.771 245.459 517.289 237.986C513.462 231.599 509.5 224.988 508.306 218.162C507.057 211.057 508.548 203.333 509.977 195.861C511.665 187.07 513.264 178.763 510.695 171.712C508.054 164.473 501.092 158.831 494.355 153.368C488.525 148.64 482.488 143.743 478.967 137.67C475.392 131.498 474.143 123.783 472.93 116.311C471.493 107.43 470.128 99.0338 465.241 93.2299C460.336 87.3991 452.278 84.6003 443.754 81.6491C436.612 79.1732 429.219 76.6077 423.784 72.0417C418.367 67.4937 414.577 60.6941 410.911 54.1097C406.51 46.2157 402.36 38.7523 395.721 34.9219C389.172 31.1364 380.675 31.262 371.682 31.3876C364.092 31.4952 356.241 31.6029 349.503 29.1539C342.937 26.7678 337.089 21.7084 331.429 16.8195C324.854 11.1323 318.045 5.25662 310.391 3.91105C303.061 2.62828 295.192 5.62441 286.856 8.79995C279.696 11.527 272.285 14.3437 265 14.3437C257.715 14.3437 250.304 11.527 243.144 8.79995C234.808 5.62441 226.93 2.62828 219.608 3.91105C211.955 5.24765 205.146 11.1323 198.57 16.8195C192.911 21.7084 187.063 26.7678 180.496 29.1539C173.759 31.6029 165.908 31.4952 158.317 31.3876C149.325 31.262 140.827 31.1454 134.278 34.9219C127.64 38.7523 123.49 46.2157 119.088 54.1097C115.423 60.6941 111.632 67.5026 106.215 72.0417C100.772 76.6077 93.3876 79.1642 86.2461 81.6401C77.7212 84.6003 69.6634 87.3902 64.7586 93.2209C59.8718 99.0338 58.5064 107.421 57.0691 116.302C55.8564 123.774 54.6078 131.489 51.0325 137.661C47.5112 143.743 41.4746 148.631 35.6446 153.359C28.9073 158.822 21.9454 164.464 19.3044 171.704C16.7352 178.754 18.3342 187.061 20.014 195.852C21.4513 203.324 22.9335 211.048 21.6849 218.153C20.4901 224.979 16.5286 231.59 12.7018 237.977C8.22828 245.45 3.59303 253.182 3.59303 261.004C3.59303 268.827 8.2193 276.559 12.7018 284.032C16.5286 290.419 20.4901 297.03 21.6849 303.856C22.9335 310.961 21.4423 318.684 20.014 326.157C18.3252 334.948 16.7262 343.255 19.3044 350.305C21.9454 357.545 28.9073 363.187 35.6446 368.65C41.4746 373.377 47.5112 378.275 51.0325 384.357C54.6078 390.529 55.8564 398.252 57.0691 405.716C58.5064 414.597 59.8718 422.993 64.7586 428.797C69.6634 434.628 77.7212 437.426 86.2461 440.378C93.3876 442.854 100.781 445.419 106.215 449.985C111.632 454.533 115.423 461.333 119.088 467.917C123.49 475.811 127.64 483.274 134.278 487.105C140.827 490.89 149.316 490.765 158.317 490.648C165.908 490.541 173.759 490.433 180.496 492.882C187.063 495.268 192.911 500.327 198.57 505.216C205.146 510.904 211.955 516.779 219.608 518.125C226.939 519.399 234.808 516.411 243.144 513.236C250.304 510.509 257.715 507.692 265 507.692Z" fill="#003DB3"/>
<path d="M123.985 401.813C91.6186 369.493 71.2451 326.704 66.6098 281.331C62.0374 236.586 72.8351 191.223 97.0174 153.592L100.045 155.529C76.3025 192.479 65.7025 237.026 70.1851 280.963C74.7395 325.529 94.7447 367.546 126.527 399.275L123.985 401.813Z" fill="#003DB3"/>
<path d="M406.016 401.814L403.474 399.275C435.076 367.717 455.063 325.942 459.743 281.655C464.361 237.995 454.057 193.636 430.728 156.741L433.764 154.821C457.525 192.399 468.017 237.574 463.319 282.031C458.549 327.144 438.202 369.682 406.016 401.814Z" fill="#003DB3"/>
</g>
<defs>
<clipPath id="clip0_25_358">
<rect width="530" height="522" fill="white"/>
</clipPath>
<clipPath id="clip1_25_358">
<rect x="112.5" y="108.5" width="305" height="305" rx="152.5" fill="white"/>
</clipPath>
</defs>
</svg>
